<?xml version="1.0" encoding="utf-8" standalone="no"?>
<!DOCTYPE svg PUBLIC "-//W3C//DTD SVG 1.1//EN"
  "http://www.w3.org/Graphics/SVG/1.1/DTD/svg11.dtd">
<svg xmlns:xlink="http://www.w3.org/1999/xlink" width="496.30375pt" height="460.18375pt" viewBox="0 0 496.30375 460.18375" xmlns="http://www.w3.org/2000/svg" version="1.1">
 <metadata>
  <rdf:RDF xmlns:dc="http://purl.org/dc/elements/1.1/" xmlns:cc="http://creativecommons.org/ns#" xmlns:rdf="http://www.w3.org/1999/02/22-rdf-syntax-ns#">
   <cc:Work>
    <dc:type rdf:resource="http://purl.org/dc/dcmitype/StillImage"/>
    <dc:date>2026-04-26T16:17:33.060842</dc:date>
    <dc:format>image/svg+xml</dc:format>
    <dc:creator>
     <cc:Agent>
      <dc:title>Matplotlib v3.10.8, https://matplotlib.org/</dc:title>
     </cc:Agent>
    </dc:creator>
   </cc:Work>
  </rdf:RDF>
 </metadata>
 <defs>
  <style type="text/css">*{stroke-linejoin: round; stroke-linecap: butt}</style>
 </defs>
 <g id="figure_1">
  <g id="patch_1">
   <path d="M 0 460.18375 
L 496.30375 460.18375 
L 496.30375 0 
L 0 0 
L 0 460.18375 
z
" style="fill: none"/>
  </g>
  <g id="axes_1">
   <g id="patch_2">
    <path d="M 73.23375 399.4 
L 489.10375 399.4 
L 489.10375 7.2 
L 73.23375 7.2 
L 73.23375 399.4 
z
" style="fill: none"/>
   </g>
   <g id="matplotlib.axis_1">
    <g id="xtick_1">
     <g id="line2d_1">
      <defs>
       <path id="m759ea2cf27" d="M 0 0 
L 0 3.5 
" style="stroke: #000000; stroke-width: 0.8"/>
      </defs>
      <g>
       <use xlink:href="#m759ea2cf27" x="129.943295" y="399.4" style="stroke: #000000; stroke-width: 0.8"/>
      </g>
     </g>
     <g id="text_1">
      <!-- −4 -->
      <g transform="translate(115.201108 421.596875) scale(0.2 -0.2)">
       <defs>
        <path id="DejaVuSans-2212" d="M 678 2272 
L 4684 2272 
L 4684 1741 
L 678 1741 
L 678 2272 
z
" transform="scale(0.015625)"/>
        <path id="DejaVuSans-34" d="M 2419 4116 
L 825 1625 
L 2419 1625 
L 2419 4116 
z
M 2253 4666 
L 3047 4666 
L 3047 1625 
L 3713 1625 
L 3713 1100 
L 3047 1100 
L 3047 0 
L 2419 0 
L 2419 1100 
L 313 1100 
L 313 1709 
L 2253 4666 
z
" transform="scale(0.015625)"/>
       </defs>
       <use xlink:href="#DejaVuSans-2212"/>
       <use xlink:href="#DejaVuSans-34" transform="translate(83.789062 0)"/>
      </g>
     </g>
    </g>
    <g id="xtick_2">
     <g id="line2d_2">
      <g>
       <use xlink:href="#m759ea2cf27" x="205.556023" y="399.4" style="stroke: #000000; stroke-width: 0.8"/>
      </g>
     </g>
     <g id="text_2">
      <!-- −2 -->
      <g transform="translate(190.813835 421.596875) scale(0.2 -0.2)">
       <defs>
        <path id="DejaVuSans-32" d="M 1228 531 
L 3431 531 
L 3431 0 
L 469 0 
L 469 531 
Q 828 903 1448 1529 
Q 2069 2156 2228 2338 
Q 2531 2678 2651 2914 
Q 2772 3150 2772 3378 
Q 2772 3750 2511 3984 
Q 2250 4219 1831 4219 
Q 1534 4219 1204 4116 
Q 875 4013 500 3803 
L 500 4441 
Q 881 4594 1212 4672 
Q 1544 4750 1819 4750 
Q 2544 4750 2975 4387 
Q 3406 4025 3406 3419 
Q 3406 3131 3298 2873 
Q 3191 2616 2906 2266 
Q 2828 2175 2409 1742 
Q 1991 1309 1228 531 
z
" transform="scale(0.015625)"/>
       </defs>
       <use xlink:href="#DejaVuSans-2212"/>
       <use xlink:href="#DejaVuSans-32" transform="translate(83.789062 0)"/>
      </g>
     </g>
    </g>
    <g id="xtick_3">
     <g id="line2d_3">
      <g>
       <use xlink:href="#m759ea2cf27" x="281.16875" y="399.4" style="stroke: #000000; stroke-width: 0.8"/>
      </g>
     </g>
     <g id="text_3">
      <!-- 0 -->
      <g transform="translate(274.80625 421.596875) scale(0.2 -0.2)">
       <defs>
        <path id="DejaVuSans-30" d="M 2034 4250 
Q 1547 4250 1301 3770 
Q 1056 3291 1056 2328 
Q 1056 1369 1301 889 
Q 1547 409 2034 409 
Q 2525 409 2770 889 
Q 3016 1369 3016 2328 
Q 3016 3291 2770 3770 
Q 2525 4250 2034 4250 
z
M 2034 4750 
Q 2819 4750 3233 4129 
Q 3647 3509 3647 2328 
Q 3647 1150 3233 529 
Q 2819 -91 2034 -91 
Q 1250 -91 836 529 
Q 422 1150 422 2328 
Q 422 3509 836 4129 
Q 1250 4750 2034 4750 
z
" transform="scale(0.015625)"/>
       </defs>
       <use xlink:href="#DejaVuSans-30"/>
      </g>
     </g>
    </g>
    <g id="xtick_4">
     <g id="line2d_4">
      <g>
       <use xlink:href="#m759ea2cf27" x="356.781477" y="399.4" style="stroke: #000000; stroke-width: 0.8"/>
      </g>
     </g>
     <g id="text_4">
      <!-- 2 -->
      <g transform="translate(350.418977 421.596875) scale(0.2 -0.2)">
       <use xlink:href="#DejaVuSans-32"/>
      </g>
     </g>
    </g>
    <g id="xtick_5">
     <g id="line2d_5">
      <g>
       <use xlink:href="#m759ea2cf27" x="432.394205" y="399.4" style="stroke: #000000; stroke-width: 0.8"/>
      </g>
     </g>
     <g id="text_5">
      <!-- 4 -->
      <g transform="translate(426.031705 421.596875) scale(0.2 -0.2)">
       <use xlink:href="#DejaVuSans-34"/>
      </g>
     </g>
    </g>
    <g id="text_6">
     <!-- $r(a) - r(b)$ -->
     <g transform="translate(222.84875 447.9925) scale(0.24 -0.24)">
      <defs>
       <path id="DejaVuSans-Oblique-72" d="M 2853 2969 
Q 2766 3016 2653 3041 
Q 2541 3066 2413 3066 
Q 1953 3066 1609 2717 
Q 1266 2369 1153 1784 
L 800 0 
L 225 0 
L 909 3500 
L 1484 3500 
L 1375 2956 
Q 1603 3259 1920 3421 
Q 2238 3584 2597 3584 
Q 2691 3584 2781 3573 
Q 2872 3563 2963 3538 
L 2853 2969 
z
" transform="scale(0.015625)"/>
       <path id="DejaVuSans-28" d="M 1984 4856 
Q 1566 4138 1362 3434 
Q 1159 2731 1159 2009 
Q 1159 1288 1364 580 
Q 1569 -128 1984 -844 
L 1484 -844 
Q 1016 -109 783 600 
Q 550 1309 550 2009 
Q 550 2706 781 3412 
Q 1013 4119 1484 4856 
L 1984 4856 
z
" transform="scale(0.015625)"/>
       <path id="DejaVuSans-Oblique-61" d="M 3438 1997 
L 3047 0 
L 2472 0 
L 2578 531 
Q 2325 219 2001 64 
Q 1678 -91 1281 -91 
Q 834 -91 548 182 
Q 263 456 263 884 
Q 263 1497 752 1853 
Q 1241 2209 2100 2209 
L 2900 2209 
L 2931 2363 
Q 2938 2388 2941 2417 
Q 2944 2447 2944 2509 
Q 2944 2788 2717 2942 
Q 2491 3097 2081 3097 
Q 1800 3097 1504 3025 
Q 1209 2953 897 2809 
L 997 3341 
Q 1322 3463 1633 3523 
Q 1944 3584 2234 3584 
Q 2853 3584 3176 3315 
Q 3500 3047 3500 2534 
Q 3500 2431 3484 2292 
Q 3469 2153 3438 1997 
z
M 2816 1759 
L 2241 1759 
Q 1534 1759 1195 1570 
Q 856 1381 856 984 
Q 856 709 1029 553 
Q 1203 397 1509 397 
Q 1978 397 2328 733 
Q 2678 1069 2791 1631 
L 2816 1759 
z
" transform="scale(0.015625)"/>
       <path id="DejaVuSans-29" d="M 513 4856 
L 1013 4856 
Q 1481 4119 1714 3412 
Q 1947 2706 1947 2009 
Q 1947 1309 1714 600 
Q 1481 -109 1013 -844 
L 513 -844 
Q 928 -128 1133 580 
Q 1338 1288 1338 2009 
Q 1338 2731 1133 3434 
Q 928 4138 513 4856 
z
" transform="scale(0.015625)"/>
       <path id="DejaVuSans-Oblique-62" d="M 3169 2138 
Q 3169 2591 2961 2847 
Q 2753 3103 2388 3103 
Q 2122 3103 1889 2973 
Q 1656 2844 1484 2597 
Q 1303 2338 1198 1995 
Q 1094 1653 1094 1313 
Q 1094 881 1298 636 
Q 1503 391 1863 391 
Q 2134 391 2365 517 
Q 2597 644 2772 891 
Q 2950 1147 3059 1487 
Q 3169 1828 3169 2138 
z
M 1381 2969 
Q 1594 3256 1914 3420 
Q 2234 3584 2584 3584 
Q 3122 3584 3439 3221 
Q 3756 2859 3756 2241 
Q 3756 1734 3570 1259 
Q 3384 784 3041 416 
Q 2816 172 2522 40 
Q 2228 -91 1906 -91 
Q 1566 -91 1316 65 
Q 1066 222 909 531 
L 806 0 
L 231 0 
L 1178 4863 
L 1753 4863 
L 1381 2969 
z
" transform="scale(0.015625)"/>
      </defs>
      <use xlink:href="#DejaVuSans-Oblique-72" transform="translate(0 0.015625)"/>
      <use xlink:href="#DejaVuSans-28" transform="translate(41.113281 0.015625)"/>
      <use xlink:href="#DejaVuSans-Oblique-61" transform="translate(80.126953 0.015625)"/>
      <use xlink:href="#DejaVuSans-29" transform="translate(141.40625 0.015625)"/>
      <use xlink:href="#DejaVuSans-2212" transform="translate(199.902344 0.015625)"/>
      <use xlink:href="#DejaVuSans-Oblique-72" transform="translate(303.173828 0.015625)"/>
      <use xlink:href="#DejaVuSans-28" transform="translate(344.287109 0.015625)"/>
      <use xlink:href="#DejaVuSans-Oblique-62" transform="translate(383.300781 0.015625)"/>
      <use xlink:href="#DejaVuSans-29" transform="translate(446.777344 0.015625)"/>
     </g>
    </g>
   </g>
   <g id="matplotlib.axis_2">
    <g id="ytick_1">
     <g id="line2d_6">
      <defs>
       <path id="mb34c46fc76" d="M 0 0 
L -3.5 0 
" style="stroke: #000000; stroke-width: 0.8"/>
      </defs>
      <g>
       <use xlink:href="#mb34c46fc76" x="73.23375" y="381.572727" style="stroke: #000000; stroke-width: 0.8"/>
      </g>
     </g>
     <g id="text_7">
      <!-- 0.0 -->
      <g transform="translate(34.4275 389.171165) scale(0.2 -0.2)">
       <defs>
        <path id="DejaVuSans-2e" d="M 684 794 
L 1344 794 
L 1344 0 
L 684 0 
L 684 794 
z
" transform="scale(0.015625)"/>
       </defs>
       <use xlink:href="#DejaVuSans-30"/>
       <use xlink:href="#DejaVuSans-2e" transform="translate(63.623047 0)"/>
       <use xlink:href="#DejaVuSans-30" transform="translate(95.410156 0)"/>
      </g>
     </g>
    </g>
    <g id="ytick_2">
     <g id="line2d_7">
      <g>
       <use xlink:href="#mb34c46fc76" x="73.23375" y="310.263636" style="stroke: #000000; stroke-width: 0.8"/>
      </g>
     </g>
     <g id="text_8">
      <!-- 0.2 -->
      <g transform="translate(34.4275 317.862074) scale(0.2 -0.2)">
       <use xlink:href="#DejaVuSans-30"/>
       <use xlink:href="#DejaVuSans-2e" transform="translate(63.623047 0)"/>
       <use xlink:href="#DejaVuSans-32" transform="translate(95.410156 0)"/>
      </g>
     </g>
    </g>
    <g id="ytick_3">
     <g id="line2d_8">
      <g>
       <use xlink:href="#mb34c46fc76" x="73.23375" y="238.954545" style="stroke: #000000; stroke-width: 0.8"/>
      </g>
     </g>
     <g id="text_9">
      <!-- 0.4 -->
      <g transform="translate(34.4275 246.552983) scale(0.2 -0.2)">
       <use xlink:href="#DejaVuSans-30"/>
       <use xlink:href="#DejaVuSans-2e" transform="translate(63.623047 0)"/>
       <use xlink:href="#DejaVuSans-34" transform="translate(95.410156 0)"/>
      </g>
     </g>
    </g>
    <g id="ytick_4">
     <g id="line2d_9">
      <g>
       <use xlink:href="#mb34c46fc76" x="73.23375" y="167.645455" style="stroke: #000000; stroke-width: 0.8"/>
      </g>
     </g>
     <g id="text_10">
      <!-- 0.6 -->
      <g transform="translate(34.4275 175.243892) scale(0.2 -0.2)">
       <defs>
        <path id="DejaVuSans-36" d="M 2113 2584 
Q 1688 2584 1439 2293 
Q 1191 2003 1191 1497 
Q 1191 994 1439 701 
Q 1688 409 2113 409 
Q 2538 409 2786 701 
Q 3034 994 3034 1497 
Q 3034 2003 2786 2293 
Q 2538 2584 2113 2584 
z
M 3366 4563 
L 3366 3988 
Q 3128 4100 2886 4159 
Q 2644 4219 2406 4219 
Q 1781 4219 1451 3797 
Q 1122 3375 1075 2522 
Q 1259 2794 1537 2939 
Q 1816 3084 2150 3084 
Q 2853 3084 3261 2657 
Q 3669 2231 3669 1497 
Q 3669 778 3244 343 
Q 2819 -91 2113 -91 
Q 1303 -91 875 529 
Q 447 1150 447 2328 
Q 447 3434 972 4092 
Q 1497 4750 2381 4750 
Q 2619 4750 2861 4703 
Q 3103 4656 3366 4563 
z
" transform="scale(0.015625)"/>
       </defs>
       <use xlink:href="#DejaVuSans-30"/>
       <use xlink:href="#DejaVuSans-2e" transform="translate(63.623047 0)"/>
       <use xlink:href="#DejaVuSans-36" transform="translate(95.410156 0)"/>
      </g>
     </g>
    </g>
    <g id="ytick_5">
     <g id="line2d_10">
      <g>
       <use xlink:href="#mb34c46fc76" x="73.23375" y="96.336364" style="stroke: #000000; stroke-width: 0.8"/>
      </g>
     </g>
     <g id="text_11">
      <!-- 0.8 -->
      <g transform="translate(34.4275 103.934801) scale(0.2 -0.2)">
       <defs>
        <path id="DejaVuSans-38" d="M 2034 2216 
Q 1584 2216 1326 1975 
Q 1069 1734 1069 1313 
Q 1069 891 1326 650 
Q 1584 409 2034 409 
Q 2484 409 2743 651 
Q 3003 894 3003 1313 
Q 3003 1734 2745 1975 
Q 2488 2216 2034 2216 
z
M 1403 2484 
Q 997 2584 770 2862 
Q 544 3141 544 3541 
Q 544 4100 942 4425 
Q 1341 4750 2034 4750 
Q 2731 4750 3128 4425 
Q 3525 4100 3525 3541 
Q 3525 3141 3298 2862 
Q 3072 2584 2669 2484 
Q 3125 2378 3379 2068 
Q 3634 1759 3634 1313 
Q 3634 634 3220 271 
Q 2806 -91 2034 -91 
Q 1263 -91 848 271 
Q 434 634 434 1313 
Q 434 1759 690 2068 
Q 947 2378 1403 2484 
z
M 1172 3481 
Q 1172 3119 1398 2916 
Q 1625 2713 2034 2713 
Q 2441 2713 2670 2916 
Q 2900 3119 2900 3481 
Q 2900 3844 2670 4047 
Q 2441 4250 2034 4250 
Q 1625 4250 1398 4047 
Q 1172 3844 1172 3481 
z
" transform="scale(0.015625)"/>
       </defs>
       <use xlink:href="#DejaVuSans-30"/>
       <use xlink:href="#DejaVuSans-2e" transform="translate(63.623047 0)"/>
       <use xlink:href="#DejaVuSans-38" transform="translate(95.410156 0)"/>
      </g>
     </g>
    </g>
    <g id="ytick_6">
     <g id="line2d_11">
      <g>
       <use xlink:href="#mb34c46fc76" x="73.23375" y="25.027273" style="stroke: #000000; stroke-width: 0.8"/>
      </g>
     </g>
     <g id="text_12">
      <!-- 1.0 -->
      <g transform="translate(34.4275 32.62571) scale(0.2 -0.2)">
       <defs>
        <path id="DejaVuSans-31" d="M 794 531 
L 1825 531 
L 1825 4091 
L 703 3866 
L 703 4441 
L 1819 4666 
L 2450 4666 
L 2450 531 
L 3481 531 
L 3481 0 
L 794 0 
L 794 531 
z
" transform="scale(0.015625)"/>
       </defs>
       <use xlink:href="#DejaVuSans-31"/>
       <use xlink:href="#DejaVuSans-2e" transform="translate(63.623047 0)"/>
       <use xlink:href="#DejaVuSans-30" transform="translate(95.410156 0)"/>
      </g>
     </g>
    </g>
    <g id="text_13">
     <!-- $P(a \succ b)$ -->
     <g transform="translate(25.43625 249.62) rotate(-90) scale(0.24 -0.24)">
      <defs>
       <path id="DejaVuSans-Oblique-50" d="M 1081 4666 
L 2541 4666 
Q 3178 4666 3512 4369 
Q 3847 4072 3847 3500 
Q 3847 2731 3353 2303 
Q 2859 1875 1966 1875 
L 1172 1875 
L 806 0 
L 172 0 
L 1081 4666 
z
M 1613 4147 
L 1275 2394 
L 2069 2394 
Q 2606 2394 2893 2669 
Q 3181 2944 3181 3456 
Q 3181 3784 2986 3965 
Q 2791 4147 2438 4147 
L 1613 4147 
z
" transform="scale(0.015625)"/>
       <path id="DejaVuSans-227b" d="M 678 3503 
L 678 4250 
Q 1925 2650 4684 2263 
L 4684 1744 
Q 1931 1356 678 -244 
L 678 503 
Q 1934 1709 3563 2003 
Q 1922 2306 678 3503 
z
" transform="scale(0.015625)"/>
      </defs>
      <use xlink:href="#DejaVuSans-Oblique-50" transform="translate(0 0.015625)"/>
      <use xlink:href="#DejaVuSans-28" transform="translate(60.302734 0.015625)"/>
      <use xlink:href="#DejaVuSans-Oblique-61" transform="translate(99.316406 0.015625)"/>
      <use xlink:href="#DejaVuSans-227b" transform="translate(180.078125 0.015625)"/>
      <use xlink:href="#DejaVuSans-Oblique-62" transform="translate(283.349609 0.015625)"/>
      <use xlink:href="#DejaVuSans-29" transform="translate(346.826172 0.015625)"/>
     </g>
    </g>
   </g>
   <g id="line2d_12">
    <path d="M 92.136932 302.170005 
L 104.454795 297.029441 
L 117.720185 291.242103 
L 130.985576 285.198964 
L 144.250967 278.907451 
L 157.516358 272.377596 
L 171.729276 265.131324 
L 186.889723 257.138029 
L 202.997697 248.376845 
L 220.0532 238.840741 
L 239.951286 227.445396 
L 264.587012 213.063943 
L 328.071382 175.873823 
L 347.969468 164.553843 
L 365.02497 155.101612 
L 381.132945 146.434145 
L 396.293391 138.540229 
L 410.50631 131.395463 
L 423.771701 124.966355 
L 437.037091 118.780214 
L 450.302482 112.845944 
L 463.567873 107.169885 
L 470.200568 104.429995 
L 470.200568 104.429995 
" clip-path="url(#p3b4da4bc3e)" style="fill: none; stroke: #cccccc; stroke-width: 2; stroke-linecap: square"/>
   </g>
   <g id="line2d_13">
    <path d="M 92.136932 354.525838 
L 99.717155 351.911066 
L 107.297378 349.068445 
L 114.877602 345.983063 
L 122.457825 342.639997 
L 130.038048 339.024534 
L 136.670744 335.626335 
L 143.303439 331.999581 
L 149.936134 328.135804 
L 156.56883 324.027333 
L 163.201525 319.667498 
L 169.83422 315.050836 
L 176.466916 310.173312 
L 183.099611 305.03254 
L 189.732307 299.628 
L 196.365002 293.961249 
L 203.945225 287.168897 
L 211.525449 280.04874 
L 219.105672 272.614774 
L 226.685895 264.885534 
L 235.213646 255.866142 
L 244.688925 245.4892 
L 255.111732 233.716993 
L 267.429595 219.452041 
L 311.963407 167.491193 
L 322.386214 155.879106 
L 330.913965 146.685106 
L 339.441717 137.814274 
L 347.02194 130.230068 
L 354.602163 122.950975 
L 362.182386 115.993251 
L 369.76261 109.368669 
L 376.395305 103.851434 
L 383.028 98.597567 
L 389.660696 93.60741 
L 396.293391 88.879353 
L 402.926087 84.41004 
L 409.558782 80.194593 
L 416.191477 76.226832 
L 422.824173 72.499492 
L 429.456868 69.004421 
L 436.089563 65.73278 
L 443.669787 62.255332 
L 451.25001 59.042966 
L 458.830233 56.080834 
L 466.410457 53.353994 
L 470.200568 52.074162 
L 470.200568 52.074162 
" clip-path="url(#p3b4da4bc3e)" style="fill: none; stroke: #9ecae1; stroke-width: 2; stroke-linecap: square"/>
   </g>
   <g id="line2d_14">
    <path d="M 92.136932 379.186422 
L 103.507267 378.356681 
L 112.982546 377.451243 
L 121.510297 376.423449 
L 129.09052 375.300342 
L 136.670744 373.937598 
L 143.303439 372.510633 
L 148.988606 371.083379 
L 154.673774 369.439185 
L 160.358941 367.547711 
L 165.096581 365.758371 
L 169.83422 363.75262 
L 174.57186 361.507459 
L 179.3095 358.99828 
L 184.047139 356.198989 
L 187.837251 353.732302 
L 191.627362 351.047921 
L 195.417474 348.131044 
L 199.207586 344.966733 
L 202.997697 341.540107 
L 206.787809 337.836569 
L 210.577921 333.842074 
L 214.368032 329.543435 
L 218.158144 324.92867 
L 221.948256 319.987375 
L 225.738367 314.71113 
L 229.528479 309.093926 
L 233.318591 303.132592 
L 237.108702 296.827217 
L 241.846342 288.467781 
L 246.583981 279.593142 
L 251.321621 270.23011 
L 256.05926 260.416565 
L 261.744428 248.115346 
L 268.377123 233.174465 
L 276.904874 213.342331 
L 294.907905 171.258939 
L 301.5406 156.398518 
L 307.225768 144.186878 
L 311.963407 134.45987 
L 316.701047 125.191844 
L 321.438686 116.418449 
L 326.176326 108.164324 
L 330.913965 100.443649 
L 334.704077 94.654582 
L 338.494189 89.208442 
L 342.2843 84.100584 
L 346.074412 79.32374 
L 349.864524 74.868446 
L 353.654635 70.723461 
L 357.444747 66.876154 
L 361.234858 63.312868 
L 365.02497 60.019248 
L 368.815082 56.980523 
L 372.605193 54.181757 
L 376.395305 51.608058 
L 381.132945 48.685115 
L 385.870584 46.063101 
L 390.608224 43.715372 
L 395.345863 41.616709 
L 400.083503 39.743459 
L 405.76867 37.762236 
L 411.453838 36.039151 
L 417.139005 34.542753 
L 423.771701 33.046042 
L 430.404396 31.780171 
L 437.984619 30.572389 
L 446.51237 29.466583 
L 455.98765 28.492009 
L 466.410457 27.663349 
L 470.200568 27.413578 
L 470.200568 27.413578 
" clip-path="url(#p3b4da4bc3e)" style="fill: none; stroke: #4292c6; stroke-width: 2; stroke-linecap: square"/>
   </g>
   <g id="line2d_15">
    <path d="M 92.136932 381.556541 
L 135.723216 381.410414 
L 153.726246 381.152337 
L 166.044109 380.767013 
L 175.519388 380.244617 
L 183.099611 379.593069 
L 188.784779 378.903659 
L 194.469946 377.976597 
L 199.207586 376.965546 
L 202.997697 375.958788 
L 206.787809 374.736306 
L 210.577921 373.25393 
L 213.420504 371.940497 
L 216.263088 370.426328 
L 219.105672 368.682979 
L 221.948256 366.678719 
L 224.790839 364.378405 
L 227.633423 361.743437 
L 230.476007 358.731849 
L 233.318591 355.298564 
L 236.161174 351.395878 
L 239.003758 346.974226 
L 241.846342 341.983284 
L 244.688925 336.37346 
L 247.531509 330.097821 
L 250.374093 323.114449 
L 253.216677 315.389209 
L 256.05926 306.898824 
L 258.901844 297.634113 
L 261.744428 287.603144 
L 264.587012 276.834006 
L 268.377123 261.416883 
L 272.167235 244.961591 
L 276.904874 223.321131 
L 291.117793 157.439905 
L 294.907905 141.223152 
L 298.698016 126.096889 
L 301.5406 115.569356 
L 304.383184 105.791724 
L 307.225768 96.785139 
L 310.068351 88.551585 
L 312.910935 81.076823 
L 315.753519 74.3336 
L 318.596102 68.284858 
L 321.438686 62.886718 
L 324.28127 58.091121 
L 327.123854 53.848039 
L 329.966437 50.107255 
L 332.809021 46.819719 
L 335.651605 43.938533 
L 338.494189 41.419617 
L 341.336772 39.222106 
L 344.179356 37.308551 
L 347.02194 35.644955 
L 349.864524 34.200701 
L 353.654635 32.569331 
L 357.444747 31.222904 
L 361.234858 30.113341 
L 365.972498 28.998384 
L 370.710138 28.12569 
L 376.395305 27.326101 
L 383.028 26.648903 
L 390.608224 26.114829 
L 400.083503 25.686876 
L 412.401366 25.37136 
L 430.404396 25.160108 
L 461.672817 25.052686 
L 470.200568 25.043459 
L 470.200568 25.043459 
" clip-path="url(#p3b4da4bc3e)" style="fill: none; stroke: #2171b5; stroke-width: 2; stroke-linecap: square"/>
   </g>
   <g id="line2d_16">
    <path d="M 92.136932 381.572727 
L 220.0532 381.462648 
L 228.580951 381.232921 
L 234.266118 380.852773 
L 238.05623 380.385794 
L 240.898814 379.846748 
L 243.741398 379.064622 
L 245.636453 378.356681 
L 247.531509 377.451243 
L 249.426565 376.294698 
L 251.321621 374.819829 
L 253.216677 372.942953 
L 255.111732 370.560849 
L 257.006788 367.547711 
L 258.901844 363.75262 
L 260.7969 358.99828 
L 262.691956 353.08219 
L 264.587012 345.781825 
L 266.482067 336.865755 
L 268.377123 326.112598 
L 270.272179 313.33897 
L 272.167235 298.435676 
L 274.062291 281.408156 
L 275.957346 262.413122 
L 278.79993 230.998751 
L 286.380154 144.186878 
L 288.275209 125.191844 
L 290.170265 108.164324 
L 292.065321 93.26103 
L 293.960377 80.487402 
L 295.855433 69.734245 
L 297.750488 60.818175 
L 299.645544 53.51781 
L 301.5406 47.60172 
L 303.435656 42.84738 
L 305.330712 39.052289 
L 307.225768 36.039151 
L 309.120823 33.657047 
L 311.015879 31.780171 
L 312.910935 30.305302 
L 314.805991 29.148757 
L 316.701047 28.243319 
L 318.596102 27.535378 
L 321.438686 26.753252 
L 324.28127 26.214206 
L 328.071382 25.747227 
L 332.809021 25.412396 
L 339.441717 25.187565 
L 350.812051 25.062917 
L 383.028 25.027776 
L 470.200568 25.027273 
L 470.200568 25.027273 
" clip-path="url(#p3b4da4bc3e)" style="fill: none; stroke: #08306b; stroke-width: 2; stroke-linecap: square"/>
   </g>
   <g id="line2d_17">
    <path d="M 73.23375 203.3 
L 489.10375 203.3 
" clip-path="url(#p3b4da4bc3e)" style="fill: none; stroke-dasharray: 1,1.65; stroke-dashoffset: 0; stroke: #888888"/>
   </g>
   <g id="line2d_18">
    <path d="M 281.16875 399.4 
L 281.16875 7.2 
" clip-path="url(#p3b4da4bc3e)" style="fill: none; stroke-dasharray: 1,1.65; stroke-dashoffset: 0; stroke: #888888"/>
   </g>
   <g id="patch_3">
    <path d="M 73.23375 399.4 
L 73.23375 7.2 
" style="fill: none; stroke: #000000; stroke-width: 0.8; stroke-linejoin: miter; stroke-linecap: square"/>
   </g>
   <g id="patch_4">
    <path d="M 73.23375 399.4 
L 489.10375 399.4 
" style="fill: none; stroke: #000000; stroke-width: 0.8; stroke-linejoin: miter; stroke-linecap: square"/>
   </g>
   <g id="legend_1">
    <g id="patch_5">
     <path d="M 330.30375 389.4 
L 475.10375 389.4 
Q 479.10375 389.4 479.10375 385.4 
L 479.10375 210.04375 
Q 479.10375 206.04375 475.10375 206.04375 
L 330.30375 206.04375 
Q 326.30375 206.04375 326.30375 210.04375 
L 326.30375 385.4 
Q 326.30375 389.4 330.30375 389.4 
z
" style="fill: #ffffff; opacity: 0.8; stroke: #cccccc; stroke-linejoin: miter"/>
    </g>
    <g id="text_14">
     <!-- Rationality -->
     <g transform="translate(349.174063 229.240625) scale(0.2 -0.2)">
      <defs>
       <path id="DejaVuSans-52" d="M 2841 2188 
Q 3044 2119 3236 1894 
Q 3428 1669 3622 1275 
L 4263 0 
L 3584 0 
L 2988 1197 
Q 2756 1666 2539 1819 
Q 2322 1972 1947 1972 
L 1259 1972 
L 1259 0 
L 628 0 
L 628 4666 
L 2053 4666 
Q 2853 4666 3247 4331 
Q 3641 3997 3641 3322 
Q 3641 2881 3436 2590 
Q 3231 2300 2841 2188 
z
M 1259 4147 
L 1259 2491 
L 2053 2491 
Q 2509 2491 2742 2702 
Q 2975 2913 2975 3322 
Q 2975 3731 2742 3939 
Q 2509 4147 2053 4147 
L 1259 4147 
z
" transform="scale(0.015625)"/>
       <path id="DejaVuSans-61" d="M 2194 1759 
Q 1497 1759 1228 1600 
Q 959 1441 959 1056 
Q 959 750 1161 570 
Q 1363 391 1709 391 
Q 2188 391 2477 730 
Q 2766 1069 2766 1631 
L 2766 1759 
L 2194 1759 
z
M 3341 1997 
L 3341 0 
L 2766 0 
L 2766 531 
Q 2569 213 2275 61 
Q 1981 -91 1556 -91 
Q 1019 -91 701 211 
Q 384 513 384 1019 
Q 384 1609 779 1909 
Q 1175 2209 1959 2209 
L 2766 2209 
L 2766 2266 
Q 2766 2663 2505 2880 
Q 2244 3097 1772 3097 
Q 1472 3097 1187 3025 
Q 903 2953 641 2809 
L 641 3341 
Q 956 3463 1253 3523 
Q 1550 3584 1831 3584 
Q 2591 3584 2966 3190 
Q 3341 2797 3341 1997 
z
" transform="scale(0.015625)"/>
       <path id="DejaVuSans-74" d="M 1172 4494 
L 1172 3500 
L 2356 3500 
L 2356 3053 
L 1172 3053 
L 1172 1153 
Q 1172 725 1289 603 
Q 1406 481 1766 481 
L 2356 481 
L 2356 0 
L 1766 0 
Q 1100 0 847 248 
Q 594 497 594 1153 
L 594 3053 
L 172 3053 
L 172 3500 
L 594 3500 
L 594 4494 
L 1172 4494 
z
" transform="scale(0.015625)"/>
       <path id="DejaVuSans-69" d="M 603 3500 
L 1178 3500 
L 1178 0 
L 603 0 
L 603 3500 
z
M 603 4863 
L 1178 4863 
L 1178 4134 
L 603 4134 
L 603 4863 
z
" transform="scale(0.015625)"/>
       <path id="DejaVuSans-6f" d="M 1959 3097 
Q 1497 3097 1228 2736 
Q 959 2375 959 1747 
Q 959 1119 1226 758 
Q 1494 397 1959 397 
Q 2419 397 2687 759 
Q 2956 1122 2956 1747 
Q 2956 2369 2687 2733 
Q 2419 3097 1959 3097 
z
M 1959 3584 
Q 2709 3584 3137 3096 
Q 3566 2609 3566 1747 
Q 3566 888 3137 398 
Q 2709 -91 1959 -91 
Q 1206 -91 779 398 
Q 353 888 353 1747 
Q 353 2609 779 3096 
Q 1206 3584 1959 3584 
z
" transform="scale(0.015625)"/>
       <path id="DejaVuSans-6e" d="M 3513 2113 
L 3513 0 
L 2938 0 
L 2938 2094 
Q 2938 2591 2744 2837 
Q 2550 3084 2163 3084 
Q 1697 3084 1428 2787 
Q 1159 2491 1159 1978 
L 1159 0 
L 581 0 
L 581 3500 
L 1159 3500 
L 1159 2956 
Q 1366 3272 1645 3428 
Q 1925 3584 2291 3584 
Q 2894 3584 3203 3211 
Q 3513 2838 3513 2113 
z
" transform="scale(0.015625)"/>
       <path id="DejaVuSans-6c" d="M 603 4863 
L 1178 4863 
L 1178 0 
L 603 0 
L 603 4863 
z
" transform="scale(0.015625)"/>
       <path id="DejaVuSans-79" d="M 2059 -325 
Q 1816 -950 1584 -1140 
Q 1353 -1331 966 -1331 
L 506 -1331 
L 506 -850 
L 844 -850 
Q 1081 -850 1212 -737 
Q 1344 -625 1503 -206 
L 1606 56 
L 191 3500 
L 800 3500 
L 1894 763 
L 2988 3500 
L 3597 3500 
L 2059 -325 
z
" transform="scale(0.015625)"/>
      </defs>
      <use xlink:href="#DejaVuSans-52"/>
      <use xlink:href="#DejaVuSans-61" transform="translate(67.232422 0)"/>
      <use xlink:href="#DejaVuSans-74" transform="translate(128.511719 0)"/>
      <use xlink:href="#DejaVuSans-69" transform="translate(167.720703 0)"/>
      <use xlink:href="#DejaVuSans-6f" transform="translate(195.503906 0)"/>
      <use xlink:href="#DejaVuSans-6e" transform="translate(256.685547 0)"/>
      <use xlink:href="#DejaVuSans-61" transform="translate(320.064453 0)"/>
      <use xlink:href="#DejaVuSans-6c" transform="translate(381.34375 0)"/>
      <use xlink:href="#DejaVuSans-69" transform="translate(409.126953 0)"/>
      <use xlink:href="#DejaVuSans-74" transform="translate(436.910156 0)"/>
      <use xlink:href="#DejaVuSans-79" transform="translate(476.119141 0)"/>
     </g>
    </g>
    <g id="line2d_19">
     <path d="M 334.30375 251.8 
L 354.30375 251.8 
L 374.30375 251.8 
" style="fill: none; stroke: #cccccc; stroke-width: 2; stroke-linecap: square"/>
    </g>
    <g id="text_15">
     <!-- $\beta=0.25$ -->
     <g transform="translate(390.30375 258.8) scale(0.2 -0.2)">
      <defs>
       <path id="DejaVuSans-Oblique-3b2" d="M 872 216 
L 572 -1331 
L -6 -1331 
L 928 3478 
Q 1206 4903 2538 4903 
Q 3888 4903 3659 3700 
Q 3503 2844 2894 2531 
Q 3713 2250 3553 1416 
Q 3272 -69 1759 -66 
Q 1097 -63 872 216 
z
M 1019 966 
Q 1259 422 1875 425 
Q 2775 425 2966 1406 
Q 3138 2288 1675 2219 
L 1778 2750 
Q 2909 2731 3106 3750 
Q 3241 4438 2509 4434 
Q 1691 4434 1503 3459 
L 1019 966 
z
" transform="scale(0.015625)"/>
       <path id="DejaVuSans-3d" d="M 678 2906 
L 4684 2906 
L 4684 2381 
L 678 2381 
L 678 2906 
z
M 678 1631 
L 4684 1631 
L 4684 1100 
L 678 1100 
L 678 1631 
z
" transform="scale(0.015625)"/>
       <path id="DejaVuSans-35" d="M 691 4666 
L 3169 4666 
L 3169 4134 
L 1269 4134 
L 1269 2991 
Q 1406 3038 1543 3061 
Q 1681 3084 1819 3084 
Q 2600 3084 3056 2656 
Q 3513 2228 3513 1497 
Q 3513 744 3044 326 
Q 2575 -91 1722 -91 
Q 1428 -91 1123 -41 
Q 819 9 494 109 
L 494 744 
Q 775 591 1075 516 
Q 1375 441 1709 441 
Q 2250 441 2565 725 
Q 2881 1009 2881 1497 
Q 2881 1984 2565 2268 
Q 2250 2553 1709 2553 
Q 1456 2553 1204 2497 
Q 953 2441 691 2322 
L 691 4666 
z
" transform="scale(0.015625)"/>
      </defs>
      <use xlink:href="#DejaVuSans-Oblique-3b2" transform="translate(0 0.390625)"/>
      <use xlink:href="#DejaVuSans-3d" transform="translate(83.300781 0.390625)"/>
      <use xlink:href="#DejaVuSans-30" transform="translate(186.572266 0.390625)"/>
      <use xlink:href="#DejaVuSans-2e" transform="translate(250.195312 0.390625)"/>
      <use xlink:href="#DejaVuSans-32" transform="translate(276.482422 0.390625)"/>
      <use xlink:href="#DejaVuSans-35" transform="translate(340.105469 0.390625)"/>
     </g>
    </g>
    <g id="line2d_20">
     <path d="M 334.30375 281.4 
L 354.30375 281.4 
L 374.30375 281.4 
" style="fill: none; stroke: #9ecae1; stroke-width: 2; stroke-linecap: square"/>
    </g>
    <g id="text_16">
     <!-- $\beta=0.5$ -->
     <g transform="translate(390.30375 288.4) scale(0.2 -0.2)">
      <use xlink:href="#DejaVuSans-Oblique-3b2" transform="translate(0 0.390625)"/>
      <use xlink:href="#DejaVuSans-3d" transform="translate(83.300781 0.390625)"/>
      <use xlink:href="#DejaVuSans-30" transform="translate(186.572266 0.390625)"/>
      <use xlink:href="#DejaVuSans-2e" transform="translate(250.195312 0.390625)"/>
      <use xlink:href="#DejaVuSans-35" transform="translate(281.982422 0.390625)"/>
     </g>
    </g>
    <g id="line2d_21">
     <path d="M 334.30375 311 
L 354.30375 311 
L 374.30375 311 
" style="fill: none; stroke: #4292c6; stroke-width: 2; stroke-linecap: square"/>
    </g>
    <g id="text_17">
     <!-- $\beta=1.0$ -->
     <g transform="translate(390.30375 318) scale(0.2 -0.2)">
      <use xlink:href="#DejaVuSans-Oblique-3b2" transform="translate(0 0.390625)"/>
      <use xlink:href="#DejaVuSans-3d" transform="translate(83.300781 0.390625)"/>
      <use xlink:href="#DejaVuSans-31" transform="translate(186.572266 0.390625)"/>
      <use xlink:href="#DejaVuSans-2e" transform="translate(250.195312 0.390625)"/>
      <use xlink:href="#DejaVuSans-30" transform="translate(281.982422 0.390625)"/>
     </g>
    </g>
    <g id="line2d_22">
     <path d="M 334.30375 340.6 
L 354.30375 340.6 
L 374.30375 340.6 
" style="fill: none; stroke: #2171b5; stroke-width: 2; stroke-linecap: square"/>
    </g>
    <g id="text_18">
     <!-- $\beta=2.0$ -->
     <g transform="translate(390.30375 347.6) scale(0.2 -0.2)">
      <use xlink:href="#DejaVuSans-Oblique-3b2" transform="translate(0 0.390625)"/>
      <use xlink:href="#DejaVuSans-3d" transform="translate(83.300781 0.390625)"/>
      <use xlink:href="#DejaVuSans-32" transform="translate(186.572266 0.390625)"/>
      <use xlink:href="#DejaVuSans-2e" transform="translate(250.195312 0.390625)"/>
      <use xlink:href="#DejaVuSans-30" transform="translate(281.982422 0.390625)"/>
     </g>
    </g>
    <g id="line2d_23">
     <path d="M 334.30375 370.2 
L 354.30375 370.2 
L 374.30375 370.2 
" style="fill: none; stroke: #08306b; stroke-width: 2; stroke-linecap: square"/>
    </g>
    <g id="text_19">
     <!-- $\beta=5.0$ -->
     <g transform="translate(390.30375 377.2) scale(0.2 -0.2)">
      <use xlink:href="#DejaVuSans-Oblique-3b2" transform="translate(0 0.390625)"/>
      <use xlink:href="#DejaVuSans-3d" transform="translate(83.300781 0.390625)"/>
      <use xlink:href="#DejaVuSans-35" transform="translate(186.572266 0.390625)"/>
      <use xlink:href="#DejaVuSans-2e" transform="translate(250.195312 0.390625)"/>
      <use xlink:href="#DejaVuSans-30" transform="translate(281.982422 0.390625)"/>
     </g>
    </g>
   </g>
  </g>
 </g>
 <defs>
  <clipPath id="p3b4da4bc3e">
   <rect x="73.23375" y="7.2" width="415.87" height="392.2"/>
  </clipPath>
 </defs>
</svg>
