<?xml version="1.0" encoding="utf-8" standalone="no"?>
<!DOCTYPE svg PUBLIC "-//W3C//DTD SVG 1.1//EN"
  "http://www.w3.org/Graphics/SVG/1.1/DTD/svg11.dtd">
<svg xmlns:xlink="http://www.w3.org/1999/xlink" width="856.733125pt" height="241.94375pt" viewBox="0 0 856.733125 241.94375" xmlns="http://www.w3.org/2000/svg" version="1.1">
 <metadata>
  <rdf:RDF xmlns:dc="http://purl.org/dc/elements/1.1/" xmlns:cc="http://creativecommons.org/ns#" xmlns:rdf="http://www.w3.org/1999/02/22-rdf-syntax-ns#">
   <cc:Work>
    <dc:type rdf:resource="http://purl.org/dc/dcmitype/StillImage"/>
    <dc:date>2026-04-08T18:16:01.379946</dc:date>
    <dc:format>image/svg+xml</dc:format>
    <dc:creator>
     <cc:Agent>
      <dc:title>Matplotlib v3.9.2, https://matplotlib.org/</dc:title>
     </cc:Agent>
    </dc:creator>
   </cc:Work>
  </rdf:RDF>
 </metadata>
 <defs>
  <style type="text/css">*{stroke-linejoin: round; stroke-linecap: butt}</style>
 </defs>
 <g id="figure_1">
  <g id="patch_1">
   <path d="M 0 241.94375 
L 856.733125 241.94375 
L 856.733125 0 
L 0 0 
L 0 241.94375 
z
" style="fill: none"/>
  </g>
  <g id="axes_1">
   <g id="patch_2">
    <path d="M 53.683125 192.76 
L 849.533125 192.76 
L 849.533125 7.2 
L 53.683125 7.2 
L 53.683125 192.76 
z
" style="fill: none"/>
   </g>
   <g id="matplotlib.axis_1">
    <g id="xtick_1">
     <g id="line2d_1">
      <defs>
       <path id="ma31e2eccf6" d="M 0 0 
L 0 3.5 
" style="stroke: #000000; stroke-width: 0.8"/>
      </defs>
      <g>
       <use xlink:href="#ma31e2eccf6" x="89.858125" y="192.76" style="stroke: #000000; stroke-width: 0.8"/>
      </g>
     </g>
     <g id="text_1">
      <!-- 0 -->
      <g transform="translate(86.026719 210.26) scale(0.14 -0.14)">
       <defs>
        <path id="Roboto-Thin-30" d="M 3113 1856 
Q 3113 966 2766 451 
Q 2419 -63 1756 -63 
Q 1103 -63 747 451 
Q 391 966 391 1856 
L 391 2694 
Q 391 3584 742 4100 
Q 1094 4616 1750 4616 
Q 2409 4616 2761 4100 
Q 3113 3584 3113 2694 
L 3113 1856 
z
M 2944 2694 
Q 2944 3475 2650 3961 
Q 2356 4447 1750 4447 
Q 1147 4447 853 3961 
Q 559 3475 559 2694 
L 559 1863 
Q 559 1094 856 600 
Q 1153 106 1756 106 
Q 2363 106 2653 600 
Q 2944 1094 2944 1863 
L 2944 2694 
z
" transform="scale(0.015625)"/>
       </defs>
       <use xlink:href="#Roboto-Thin-30"/>
      </g>
     </g>
    </g>
    <g id="xtick_2">
     <g id="line2d_2">
      <g>
       <use xlink:href="#ma31e2eccf6" x="234.558125" y="192.76" style="stroke: #000000; stroke-width: 0.8"/>
      </g>
     </g>
     <g id="text_2">
      <!-- 4 -->
      <g transform="translate(230.726719 210.26) scale(0.14 -0.14)">
       <defs>
        <path id="Roboto-Thin-34" d="M 256 1334 
L 2428 4550 
L 2631 4550 
L 2631 1409 
L 3419 1409 
L 3419 1241 
L 2631 1241 
L 2631 0 
L 2463 0 
L 2463 1241 
L 256 1241 
L 256 1334 
z
M 519 1409 
L 2463 1409 
L 2463 4350 
L 2200 3916 
L 519 1409 
z
" transform="scale(0.015625)"/>
       </defs>
       <use xlink:href="#Roboto-Thin-34"/>
      </g>
     </g>
    </g>
    <g id="xtick_3">
     <g id="line2d_3">
      <g>
       <use xlink:href="#ma31e2eccf6" x="379.258125" y="192.76" style="stroke: #000000; stroke-width: 0.8"/>
      </g>
     </g>
     <g id="text_3">
      <!-- 8 -->
      <g transform="translate(375.426719 210.26) scale(0.14 -0.14)">
       <defs>
        <path id="Roboto-Thin-38" d="M 3209 1184 
Q 3209 563 2787 250 
Q 2366 -63 1763 -63 
Q 1147 -63 728 250 
Q 309 563 309 1184 
Q 309 1609 578 1912 
Q 847 2216 1275 2328 
Q 900 2444 669 2725 
Q 438 3006 438 3394 
Q 438 3988 814 4300 
Q 1191 4613 1750 4613 
Q 2300 4613 2689 4300 
Q 3078 3988 3078 3394 
Q 3078 3006 2842 2725 
Q 2606 2444 2234 2328 
Q 2659 2216 2934 1912 
Q 3209 1609 3209 1184 
z
M 2909 3409 
Q 2909 3863 2570 4153 
Q 2231 4444 1750 4444 
Q 1259 4444 932 4169 
Q 606 3894 606 3409 
Q 606 2947 934 2680 
Q 1263 2413 1756 2413 
Q 2238 2413 2573 2680 
Q 2909 2947 2909 3409 
z
M 3038 1169 
Q 3038 1663 2663 1953 
Q 2288 2244 1756 2244 
Q 1216 2244 847 1953 
Q 478 1663 478 1169 
Q 478 653 847 379 
Q 1216 106 1763 106 
Q 2294 106 2666 379 
Q 3038 653 3038 1169 
z
" transform="scale(0.015625)"/>
       </defs>
       <use xlink:href="#Roboto-Thin-38"/>
      </g>
     </g>
    </g>
    <g id="xtick_4">
     <g id="line2d_4">
      <g>
       <use xlink:href="#ma31e2eccf6" x="523.958125" y="192.76" style="stroke: #000000; stroke-width: 0.8"/>
      </g>
     </g>
     <g id="text_4">
      <!-- 12 -->
      <g transform="translate(516.295313 210.26) scale(0.14 -0.14)">
       <defs>
        <path id="Roboto-Thin-31" d="M 2059 4563 
L 2059 0 
L 1891 0 
L 1891 4338 
L 584 3847 
L 584 4031 
L 2025 4563 
L 2059 4563 
z
" transform="scale(0.015625)"/>
        <path id="Roboto-Thin-32" d="M 3200 169 
L 3200 0 
L 478 0 
L 478 169 
L 2047 1978 
Q 2784 2856 2784 3391 
Q 2784 3875 2503 4159 
Q 2222 4444 1675 4444 
Q 1184 4444 859 4108 
Q 534 3772 534 3266 
L 366 3266 
Q 366 3819 730 4216 
Q 1094 4613 1675 4613 
Q 2263 4613 2609 4300 
Q 2956 3988 2956 3391 
Q 2956 2969 2657 2536 
Q 2359 2103 1997 1681 
L 700 169 
L 3200 169 
z
" transform="scale(0.015625)"/>
       </defs>
       <use xlink:href="#Roboto-Thin-31"/>
       <use xlink:href="#Roboto-Thin-32" x="54.736328"/>
      </g>
     </g>
    </g>
    <g id="xtick_5">
     <g id="line2d_5">
      <g>
       <use xlink:href="#ma31e2eccf6" x="668.658125" y="192.76" style="stroke: #000000; stroke-width: 0.8"/>
      </g>
     </g>
     <g id="text_5">
      <!-- 16 -->
      <g transform="translate(660.995313 210.26) scale(0.14 -0.14)">
       <defs>
        <path id="Roboto-Thin-36" d="M 3166 1500 
Q 3166 838 2808 387 
Q 2450 -63 1881 -63 
Q 1250 -63 825 368 
Q 400 800 400 1538 
L 400 2063 
Q 400 2969 695 3531 
Q 991 4094 1483 4353 
Q 1975 4613 2566 4613 
L 2625 4613 
L 2625 4444 
Q 1431 4444 894 3547 
Q 603 3066 572 2291 
Q 744 2591 1078 2791 
Q 1413 2991 1850 2991 
Q 2478 2991 2822 2567 
Q 3166 2144 3166 1500 
z
M 569 1541 
Q 569 888 937 495 
Q 1306 103 1881 103 
Q 2394 103 2695 525 
Q 2997 947 2997 1500 
Q 2997 2053 2706 2437 
Q 2416 2822 1828 2822 
Q 1391 2822 1025 2570 
Q 659 2319 569 1944 
L 569 1541 
z
" transform="scale(0.015625)"/>
       </defs>
       <use xlink:href="#Roboto-Thin-31"/>
       <use xlink:href="#Roboto-Thin-36" x="54.736328"/>
      </g>
     </g>
    </g>
    <g id="xtick_6">
     <g id="line2d_6">
      <g>
       <use xlink:href="#ma31e2eccf6" x="813.358125" y="192.76" style="stroke: #000000; stroke-width: 0.8"/>
      </g>
     </g>
     <g id="text_6">
      <!-- 20 -->
      <g transform="translate(805.695313 210.26) scale(0.14 -0.14)">
       <use xlink:href="#Roboto-Thin-32"/>
       <use xlink:href="#Roboto-Thin-30" x="54.736328"/>
      </g>
     </g>
    </g>
    <g id="text_7">
     <!-- Delay $d$ -->
     <g transform="translate(421.638125 230.78375) scale(0.18 -0.18)">
      <defs>
       <path id="Roboto-Regular-44" d="M 528 0 
L 528 4550 
L 1816 4550 
Q 2713 4550 3267 3973 
Q 3822 3397 3822 2409 
L 3822 2138 
Q 3822 1150 3264 575 
Q 2706 0 1759 0 
L 528 0 
z
M 1131 4056 
L 1131 491 
L 1759 491 
Q 2488 491 2856 941 
Q 3225 1391 3225 2138 
L 3225 2416 
Q 3225 3200 2856 3628 
Q 2488 4056 1816 4056 
L 1131 4056 
z
" transform="scale(0.015625)"/>
       <path id="Roboto-Regular-65" d="M 3116 591 
Q 2950 341 2647 139 
Q 2344 -63 1844 -63 
Q 1138 -63 714 396 
Q 291 856 291 1572 
L 291 1703 
Q 291 2256 502 2645 
Q 713 3034 1050 3239 
Q 1388 3444 1769 3444 
Q 2494 3444 2826 2970 
Q 3159 2497 3159 1788 
L 3159 1528 
L 872 1528 
Q 884 1063 1148 736 
Q 1413 409 1875 409 
Q 2181 409 2393 534 
Q 2606 659 2766 869 
L 3116 591 
z
M 1769 2969 
Q 1425 2969 1187 2719 
Q 950 2469 891 2000 
L 2581 2000 
L 2581 2044 
Q 2559 2381 2386 2675 
Q 2213 2969 1769 2969 
z
" transform="scale(0.015625)"/>
       <path id="Roboto-Regular-6c" d="M 1069 4800 
L 1069 0 
L 488 0 
L 488 4800 
L 1069 4800 
z
" transform="scale(0.015625)"/>
       <path id="Roboto-Regular-61" d="M 2528 0 
Q 2472 122 2447 356 
Q 2284 184 2040 60 
Q 1797 -63 1484 -63 
Q 966 -63 653 228 
Q 341 519 341 941 
Q 341 1484 753 1767 
Q 1166 2050 1863 2050 
L 2434 2050 
L 2434 2319 
Q 2434 2619 2254 2798 
Q 2075 2978 1722 2978 
Q 1394 2978 1192 2817 
Q 991 2656 991 2444 
L 413 2444 
Q 413 2806 778 3125 
Q 1144 3444 1756 3444 
Q 2306 3444 2659 3162 
Q 3013 2881 3013 2313 
L 3013 794 
Q 3013 325 3131 50 
L 3131 0 
L 2528 0 
z
M 1569 444 
Q 1881 444 2111 600 
Q 2341 756 2434 947 
L 2434 1644 
L 1897 1644 
Q 922 1625 922 1019 
Q 922 778 1084 611 
Q 1247 444 1569 444 
z
" transform="scale(0.015625)"/>
       <path id="Roboto-Regular-79" d="M 1594 -522 
Q 1294 -1316 688 -1363 
L 591 -1366 
Q 406 -1366 266 -1316 
L 263 -847 
L 419 -859 
Q 713 -859 878 -739 
Q 1044 -619 1150 -306 
L 1275 38 
L 69 3381 
L 700 3381 
L 1547 850 
L 2331 3381 
L 2950 3381 
L 1594 -522 
z
" transform="scale(0.015625)"/>
       <path id="Roboto-Regular-20" transform="scale(0.015625)"/>
       <path id="DejaVuSans-Oblique-64" d="M 2675 525 
Q 2444 222 2128 65 
Q 1813 -91 1428 -91 
Q 903 -91 598 267 
Q 294 625 294 1247 
Q 294 1766 478 2236 
Q 663 2706 1013 3078 
Q 1244 3325 1534 3454 
Q 1825 3584 2144 3584 
Q 2481 3584 2739 3421 
Q 2997 3259 3138 2956 
L 3513 4863 
L 4091 4863 
L 3144 0 
L 2566 0 
L 2675 525 
z
M 891 1350 
Q 891 897 1095 644 
Q 1300 391 1663 391 
Q 1931 391 2161 520 
Q 2391 650 2566 903 
Q 2750 1166 2856 1509 
Q 2963 1853 2963 2188 
Q 2963 2622 2758 2865 
Q 2553 3109 2194 3109 
Q 1922 3109 1687 2981 
Q 1453 2853 1288 2613 
Q 1106 2353 998 2009 
Q 891 1666 891 1350 
z
" transform="scale(0.015625)"/>
      </defs>
      <use xlink:href="#Roboto-Regular-44" transform="translate(0 0.015625)"/>
      <use xlink:href="#Roboto-Regular-65" transform="translate(65.625 0.015625)"/>
      <use xlink:href="#Roboto-Regular-6c" transform="translate(118.652344 0.015625)"/>
      <use xlink:href="#Roboto-Regular-61" transform="translate(142.96875 0.015625)"/>
      <use xlink:href="#Roboto-Regular-79" transform="translate(197.363281 0.015625)"/>
      <use xlink:href="#Roboto-Regular-20" transform="translate(244.677734 0.015625)"/>
      <use xlink:href="#DejaVuSans-Oblique-64" transform="translate(269.482422 0.015625)"/>
     </g>
    </g>
   </g>
   <g id="matplotlib.axis_2">
    <g id="ytick_1">
     <g id="line2d_7">
      <defs>
       <path id="mff09f427f0" d="M 0 0 
L -3.5 0 
" style="stroke: #000000; stroke-width: 0.8"/>
      </defs>
      <g>
       <use xlink:href="#mff09f427f0" x="53.683125" y="185.028333" style="stroke: #000000; stroke-width: 0.8"/>
      </g>
     </g>
     <g id="text_8">
      <!-- 0.0 -->
      <g transform="translate(28.35625 190.278333) scale(0.14 -0.14)">
       <defs>
        <path id="Roboto-Thin-2e" d="M 459 153 
Q 459 328 631 328 
Q 806 328 806 153 
Q 806 -19 631 -19 
Q 459 -19 459 153 
z
" transform="scale(0.015625)"/>
       </defs>
       <use xlink:href="#Roboto-Thin-30"/>
       <use xlink:href="#Roboto-Thin-2e" x="54.736328"/>
       <use xlink:href="#Roboto-Thin-30" x="76.171875"/>
      </g>
     </g>
    </g>
    <g id="ytick_2">
     <g id="line2d_8">
      <g>
       <use xlink:href="#mff09f427f0" x="53.683125" y="154.101667" style="stroke: #000000; stroke-width: 0.8"/>
      </g>
     </g>
     <g id="text_9">
      <!-- 0.2 -->
      <g transform="translate(28.35625 159.351667) scale(0.14 -0.14)">
       <use xlink:href="#Roboto-Thin-30"/>
       <use xlink:href="#Roboto-Thin-2e" x="54.736328"/>
       <use xlink:href="#Roboto-Thin-32" x="76.171875"/>
      </g>
     </g>
    </g>
    <g id="ytick_3">
     <g id="line2d_9">
      <g>
       <use xlink:href="#mff09f427f0" x="53.683125" y="123.175" style="stroke: #000000; stroke-width: 0.8"/>
      </g>
     </g>
     <g id="text_10">
      <!-- 0.4 -->
      <g transform="translate(28.35625 128.425) scale(0.14 -0.14)">
       <use xlink:href="#Roboto-Thin-30"/>
       <use xlink:href="#Roboto-Thin-2e" x="54.736328"/>
       <use xlink:href="#Roboto-Thin-34" x="76.171875"/>
      </g>
     </g>
    </g>
    <g id="ytick_4">
     <g id="line2d_10">
      <g>
       <use xlink:href="#mff09f427f0" x="53.683125" y="92.248333" style="stroke: #000000; stroke-width: 0.8"/>
      </g>
     </g>
     <g id="text_11">
      <!-- 0.6 -->
      <g transform="translate(28.35625 97.498333) scale(0.14 -0.14)">
       <use xlink:href="#Roboto-Thin-30"/>
       <use xlink:href="#Roboto-Thin-2e" x="54.736328"/>
       <use xlink:href="#Roboto-Thin-36" x="76.171875"/>
      </g>
     </g>
    </g>
    <g id="ytick_5">
     <g id="line2d_11">
      <g>
       <use xlink:href="#mff09f427f0" x="53.683125" y="61.321667" style="stroke: #000000; stroke-width: 0.8"/>
      </g>
     </g>
     <g id="text_12">
      <!-- 0.8 -->
      <g transform="translate(28.35625 66.571667) scale(0.14 -0.14)">
       <use xlink:href="#Roboto-Thin-30"/>
       <use xlink:href="#Roboto-Thin-2e" x="54.736328"/>
       <use xlink:href="#Roboto-Thin-38" x="76.171875"/>
      </g>
     </g>
    </g>
    <g id="ytick_6">
     <g id="line2d_12">
      <g>
       <use xlink:href="#mff09f427f0" x="53.683125" y="30.395" style="stroke: #000000; stroke-width: 0.8"/>
      </g>
     </g>
     <g id="text_13">
      <!-- 1.0 -->
      <g transform="translate(28.35625 35.645) scale(0.14 -0.14)">
       <use xlink:href="#Roboto-Thin-31"/>
       <use xlink:href="#Roboto-Thin-2e" x="54.736328"/>
       <use xlink:href="#Roboto-Thin-30" x="76.171875"/>
      </g>
     </g>
    </g>
    <g id="text_14">
     <!-- Discount factor -->
     <g transform="translate(20.7 161.534375) rotate(-90) scale(0.18 -0.18)">
      <defs>
       <path id="Roboto-Regular-69" d="M 444 4278 
Q 444 4419 530 4516 
Q 616 4613 784 4613 
Q 950 4613 1039 4516 
Q 1128 4419 1128 4278 
Q 1128 4144 1039 4048 
Q 950 3953 784 3953 
Q 616 3953 530 4048 
Q 444 4144 444 4278 
z
M 1069 3381 
L 1069 0 
L 488 0 
L 488 3381 
L 1069 3381 
z
" transform="scale(0.015625)"/>
       <path id="Roboto-Regular-73" d="M 2409 897 
Q 2409 1081 2273 1229 
Q 2138 1378 1647 1478 
Q 1081 1594 747 1814 
Q 413 2034 413 2456 
Q 413 2856 755 3150 
Q 1097 3444 1666 3444 
Q 2272 3444 2612 3134 
Q 2953 2825 2953 2388 
L 2375 2388 
Q 2375 2597 2190 2783 
Q 2006 2969 1666 2969 
Q 1306 2969 1150 2812 
Q 994 2656 994 2472 
Q 994 2288 1139 2173 
Q 1284 2059 1756 1953 
Q 2378 1813 2683 1584 
Q 2988 1356 2988 941 
Q 2988 494 2630 215 
Q 2272 -63 1681 -63 
Q 1009 -63 653 281 
Q 297 625 297 1044 
L 878 1044 
Q 897 684 1155 548 
Q 1413 413 1681 413 
Q 2034 413 2221 550 
Q 2409 688 2409 897 
z
" transform="scale(0.015625)"/>
       <path id="Roboto-Regular-63" d="M 1794 413 
Q 2103 413 2336 597 
Q 2569 781 2591 1069 
L 3141 1069 
Q 3119 616 2725 276 
Q 2331 -63 1794 -63 
Q 1031 -63 661 440 
Q 291 944 291 1625 
L 291 1756 
Q 291 2438 661 2941 
Q 1031 3444 1794 3444 
Q 2388 3444 2753 3092 
Q 3119 2741 3141 2219 
L 2591 2219 
Q 2569 2531 2355 2750 
Q 2141 2969 1794 2969 
Q 1438 2969 1236 2787 
Q 1034 2606 951 2328 
Q 869 2050 869 1756 
L 869 1625 
Q 869 1328 950 1050 
Q 1031 772 1232 592 
Q 1434 413 1794 413 
z
" transform="scale(0.015625)"/>
       <path id="Roboto-Regular-6f" d="M 288 1725 
Q 288 2459 700 2951 
Q 1113 3444 1822 3444 
Q 2531 3444 2943 2961 
Q 3356 2478 3366 1756 
L 3366 1653 
Q 3366 919 2952 428 
Q 2538 -63 1828 -63 
Q 1116 -63 702 428 
Q 288 919 288 1653 
L 288 1725 
z
M 866 1653 
Q 866 1150 1105 781 
Q 1344 413 1828 413 
Q 2300 413 2540 777 
Q 2781 1141 2784 1644 
L 2784 1725 
Q 2784 2222 2543 2595 
Q 2303 2969 1822 2969 
Q 1344 2969 1105 2595 
Q 866 2222 866 1725 
L 866 1653 
z
" transform="scale(0.015625)"/>
       <path id="Roboto-Regular-75" d="M 2538 0 
L 2525 334 
Q 2194 -63 1538 -63 
Q 1041 -63 734 231 
Q 428 525 428 1200 
L 428 3381 
L 1006 3381 
L 1006 1194 
Q 1006 738 1198 583 
Q 1391 428 1628 428 
Q 2281 428 2509 919 
L 2509 3381 
L 3091 3381 
L 3091 0 
L 2538 0 
z
" transform="scale(0.015625)"/>
       <path id="Roboto-Regular-6e" d="M 1844 2956 
Q 1566 2956 1353 2806 
Q 1141 2656 1019 2416 
L 1019 0 
L 441 0 
L 441 3381 
L 988 3381 
L 1006 2959 
Q 1391 3444 2016 3444 
Q 2513 3444 2805 3166 
Q 3097 2888 3100 2231 
L 3100 0 
L 2519 0 
L 2519 2222 
Q 2519 2619 2345 2787 
Q 2172 2956 1844 2956 
z
" transform="scale(0.015625)"/>
       <path id="Roboto-Regular-74" d="M 1872 0 
Q 1675 -63 1425 -63 
Q 1103 -63 875 134 
Q 647 331 647 841 
L 647 2938 
L 28 2938 
L 28 3381 
L 647 3381 
L 647 4203 
L 1225 4203 
L 1225 3381 
L 1856 3381 
L 1856 2938 
L 1225 2938 
L 1225 838 
Q 1225 578 1337 506 
Q 1450 434 1597 434 
Q 1706 434 1869 472 
L 1872 0 
z
" transform="scale(0.015625)"/>
       <path id="Roboto-Regular-66" d="M 2022 2938 
L 1303 2938 
L 1303 0 
L 725 0 
L 725 2938 
L 191 2938 
L 191 3381 
L 725 3381 
L 725 3759 
Q 731 4297 1026 4581 
Q 1322 4866 1834 4866 
Q 2025 4866 2234 4816 
L 2203 4344 
Q 2072 4372 1891 4372 
Q 1313 4372 1303 3756 
L 1303 3381 
L 2022 3381 
L 2022 2938 
z
" transform="scale(0.015625)"/>
       <path id="Roboto-Regular-72" d="M 1791 2888 
Q 1225 2888 1019 2400 
L 1019 0 
L 441 0 
L 441 3381 
L 1003 3381 
L 1016 2994 
Q 1294 3444 1819 3444 
Q 1981 3444 2075 3400 
L 2072 2863 
Q 1944 2888 1791 2888 
z
" transform="scale(0.015625)"/>
      </defs>
      <use xlink:href="#Roboto-Regular-44"/>
      <use xlink:href="#Roboto-Regular-69" x="65.625"/>
      <use xlink:href="#Roboto-Regular-73" x="89.941406"/>
      <use xlink:href="#Roboto-Regular-63" x="141.552734"/>
      <use xlink:href="#Roboto-Regular-6f" x="193.896484"/>
      <use xlink:href="#Roboto-Regular-75" x="250.927734"/>
      <use xlink:href="#Roboto-Regular-6e" x="306.054688"/>
      <use xlink:href="#Roboto-Regular-74" x="361.279297"/>
      <use xlink:href="#Roboto-Regular-20" x="393.994141"/>
      <use xlink:href="#Roboto-Regular-66" x="418.798828"/>
      <use xlink:href="#Roboto-Regular-61" x="453.564453"/>
      <use xlink:href="#Roboto-Regular-63" x="507.958984"/>
      <use xlink:href="#Roboto-Regular-74" x="560.302734"/>
      <use xlink:href="#Roboto-Regular-6f" x="593.017578"/>
      <use xlink:href="#Roboto-Regular-72" x="650.048828"/>
     </g>
    </g>
   </g>
   <g id="line2d_13">
    <path d="M 89.858125 30.395 
L 813.358125 30.395 
L 813.358125 30.395 
" clip-path="url(#pb1ffc8a065)" style="fill: none; stroke-dasharray: 7.4,3.2; stroke-dashoffset: 0; stroke: #888888; stroke-width: 2"/>
   </g>
   <g id="line2d_14">
    <path d="M 89.858125 30.395 
L 97.129482 37.17752 
L 104.400839 43.662545 
L 111.672195 49.863125 
L 118.943552 55.791735 
L 126.214909 61.460304 
L 133.486266 66.880239 
L 140.757622 72.062445 
L 148.028979 77.01735 
L 155.300336 81.754922 
L 162.571693 86.284696 
L 169.84305 90.615785 
L 177.114406 94.756903 
L 184.385763 98.716384 
L 191.65712 102.502195 
L 202.564155 107.87185 
L 213.47119 112.892123 
L 224.378226 117.585746 
L 235.285261 121.973973 
L 246.192296 126.076675 
L 257.099331 129.91243 
L 268.006366 133.498608 
L 278.913401 136.851447 
L 289.820437 139.98613 
L 300.727472 142.916851 
L 311.634507 145.656881 
L 322.541542 148.218629 
L 337.084256 151.376903 
L 351.626969 154.264197 
L 366.169683 156.903761 
L 380.712396 159.31685 
L 395.25511 161.522896 
L 409.797823 163.539663 
L 427.976215 165.819056 
L 446.154607 167.856663 
L 464.332999 169.678133 
L 486.14707 171.610702 
L 507.96114 173.299964 
L 529.77521 174.776549 
L 555.224959 176.265964 
L 580.674708 177.538992 
L 609.760135 178.769029 
L 642.481241 179.913061 
L 678.838024 180.940702 
L 718.830487 181.834332 
L 762.458628 182.587947 
L 813.358125 183.245532 
L 813.358125 183.245532 
" clip-path="url(#pb1ffc8a065)" style="fill: none; stroke: #2196f3; stroke-width: 2; stroke-linecap: square"/>
   </g>
   <g id="line2d_15">
    <path d="M 89.858125 30.395 
L 93.493803 37.793724 
L 97.129482 44.516766 
L 100.76516 50.652642 
L 104.400839 56.275056 
L 108.036517 61.44587 
L 111.672195 66.217394 
L 115.307874 70.634157 
L 118.943552 74.734307 
L 122.579231 78.550709 
L 126.214909 82.111834 
L 129.850587 85.442465 
L 133.486266 88.564279 
L 137.121944 91.496317 
L 140.757622 94.255374 
L 144.393301 96.856318 
L 151.664658 101.635289 
L 158.936014 105.922849 
L 166.207371 109.791088 
L 173.478728 113.298652 
L 180.750085 116.493738 
L 188.021442 119.416322 
L 195.292798 122.09984 
L 202.564155 124.572472 
L 209.835512 126.858138 
L 220.742547 129.979973 
L 231.649582 132.783795 
L 242.556617 135.31584 
L 253.463653 137.613798 
L 264.370688 139.708697 
L 278.913401 142.229956 
L 293.456115 144.48547 
L 307.998829 146.51515 
L 322.541542 148.351297 
L 340.719934 150.414123 
L 358.898326 152.257265 
L 380.712396 154.225497 
L 402.526467 155.9707 
L 427.976215 157.772325 
L 457.061643 159.575866 
L 486.14707 161.155538 
L 518.868175 162.713588 
L 555.224959 164.222361 
L 595.217421 165.662674 
L 642.481241 167.127209 
L 693.380738 168.47533 
L 751.551592 169.787108 
L 813.358125 170.970758 
L 813.358125 170.970758 
" clip-path="url(#pb1ffc8a065)" style="fill: none; stroke: #e91e63; stroke-width: 2; stroke-linecap: square"/>
   </g>
   <g id="patch_3">
    <path d="M 53.683125 192.76 
L 53.683125 7.2 
" style="fill: none; stroke: #000000; stroke-width: 0.8; stroke-linejoin: miter; stroke-linecap: square"/>
   </g>
   <g id="patch_4">
    <path d="M 53.683125 192.76 
L 849.533125 192.76 
" style="fill: none; stroke: #000000; stroke-width: 0.8; stroke-linejoin: miter; stroke-linecap: square"/>
   </g>
   <g id="legend_1">
    <g id="patch_5">
     <path d="M 639.453125 138.56375 
L 838.333125 138.56375 
Q 841.533125 138.56375 841.533125 135.36375 
L 841.533125 64.59625 
Q 841.533125 61.39625 838.333125 61.39625 
L 639.453125 61.39625 
Q 636.253125 61.39625 636.253125 64.59625 
L 636.253125 135.36375 
Q 636.253125 138.56375 639.453125 138.56375 
z
" style="fill: #ffffff; opacity: 0.8; stroke: #cccccc; stroke-linejoin: miter"/>
    </g>
    <g id="line2d_16">
     <path d="M 642.653125 74.19625 
L 658.653125 74.19625 
L 674.653125 74.19625 
" style="fill: none; stroke-dasharray: 7.4,3.2; stroke-dashoffset: 0; stroke: #888888; stroke-width: 2"/>
    </g>
    <g id="text_15">
     <!-- No discounting -->
     <g transform="translate(687.453125 79.79625) scale(0.16 -0.16)">
      <defs>
       <path id="Roboto-Thin-4e" d="M 3903 4550 
L 3903 0 
L 3734 0 
L 797 4263 
L 797 0 
L 625 0 
L 625 4550 
L 797 4550 
L 3734 297 
L 3734 4550 
L 3903 4550 
z
" transform="scale(0.015625)"/>
       <path id="Roboto-Thin-6f" d="M 281 1756 
Q 281 2500 692 2972 
Q 1103 3444 1759 3444 
Q 2422 3444 2831 2972 
Q 3241 2500 3241 1756 
L 3241 1625 
Q 3241 881 2833 409 
Q 2425 -63 1765 -63 
Q 1106 -63 693 409 
Q 281 881 281 1625 
L 281 1756 
z
M 450 1625 
Q 450 1019 797 562 
Q 1144 106 1766 106 
Q 2381 106 2726 562 
Q 3072 1019 3072 1625 
L 3072 1756 
Q 3072 2350 2726 2812 
Q 2381 3275 1759 3275 
Q 1141 3275 795 2812 
Q 450 2350 450 1756 
L 450 1625 
z
" transform="scale(0.015625)"/>
       <path id="Roboto-Thin-20" transform="scale(0.015625)"/>
       <path id="Roboto-Thin-64" d="M 2803 0 
L 2803 544 
Q 2647 281 2358 109 
Q 2069 -63 1650 -63 
Q 1050 -63 715 412 
Q 381 888 381 1659 
L 381 1725 
Q 381 2525 717 2984 
Q 1053 3444 1656 3444 
Q 2075 3444 2359 3255 
Q 2644 3066 2803 2759 
L 2803 4800 
L 2972 4800 
L 2972 0 
L 2803 0 
z
M 556 1659 
Q 556 984 825 545 
Q 1094 106 1647 106 
Q 2113 106 2398 315 
Q 2684 525 2803 841 
L 2803 2422 
Q 2706 2719 2448 2997 
Q 2191 3275 1653 3275 
Q 1097 3275 828 2840 
Q 559 2406 556 1741 
L 556 1659 
z
" transform="scale(0.015625)"/>
       <path id="Roboto-Thin-69" d="M 491 4438 
Q 491 4613 663 4613 
Q 838 4613 838 4438 
Q 838 4266 663 4266 
Q 491 4266 491 4438 
z
M 747 3381 
L 747 0 
L 578 0 
L 578 3381 
L 747 3381 
z
" transform="scale(0.015625)"/>
       <path id="Roboto-Thin-73" d="M 2622 828 
Q 2622 1056 2420 1289 
Q 2219 1522 1603 1659 
Q 988 1797 717 1992 
Q 447 2188 447 2591 
Q 447 2944 748 3194 
Q 1050 3444 1578 3444 
Q 2144 3444 2466 3176 
Q 2788 2909 2788 2478 
L 2616 2478 
Q 2616 2794 2348 3034 
Q 2081 3275 1578 3275 
Q 1066 3275 841 3054 
Q 616 2834 616 2597 
Q 616 2341 794 2153 
Q 972 1966 1614 1816 
Q 2256 1666 2523 1444 
Q 2791 1222 2791 825 
Q 2791 434 2470 185 
Q 2150 -63 1603 -63 
Q 988 -63 663 212 
Q 338 488 338 859 
L 506 859 
Q 538 425 886 265 
Q 1234 106 1603 106 
Q 2103 106 2362 334 
Q 2622 563 2622 828 
z
" transform="scale(0.015625)"/>
       <path id="Roboto-Thin-63" d="M 1684 106 
Q 2081 106 2409 323 
Q 2738 541 2769 1025 
L 2938 1025 
Q 2913 509 2545 223 
Q 2178 -63 1684 -63 
Q 1025 -63 664 409 
Q 303 881 303 1625 
L 303 1756 
Q 303 2500 664 2972 
Q 1025 3444 1678 3444 
Q 2169 3444 2541 3145 
Q 2913 2847 2938 2266 
L 2769 2266 
Q 2744 2769 2419 3022 
Q 2094 3275 1678 3275 
Q 1056 3275 764 2831 
Q 472 2388 472 1756 
L 472 1625 
Q 472 991 765 548 
Q 1059 106 1684 106 
z
" transform="scale(0.015625)"/>
       <path id="Roboto-Thin-75" d="M 2803 0 
L 2803 547 
Q 2653 266 2365 101 
Q 2078 -63 1638 -63 
Q 1144 -63 836 228 
Q 528 519 525 1219 
L 525 3381 
L 694 3381 
L 694 1213 
Q 697 600 962 353 
Q 1228 106 1631 106 
Q 2197 106 2465 372 
Q 2734 638 2803 1003 
L 2803 3381 
L 2975 3381 
L 2975 0 
L 2803 0 
z
" transform="scale(0.015625)"/>
       <path id="Roboto-Thin-6e" d="M 1897 3278 
Q 1528 3278 1281 3092 
Q 1034 2906 895 2645 
Q 756 2384 706 2166 
L 706 0 
L 538 0 
L 538 3381 
L 706 3381 
L 706 2597 
Q 859 2953 1170 3198 
Q 1481 3444 1906 3444 
Q 2416 3444 2697 3155 
Q 2978 2866 2981 2203 
L 2981 0 
L 2813 0 
L 2813 2203 
Q 2809 2838 2553 3058 
Q 2297 3278 1897 3278 
z
" transform="scale(0.015625)"/>
       <path id="Roboto-Thin-74" d="M 1788 -25 
Q 1684 -63 1434 -63 
Q 1113 -63 928 118 
Q 744 300 744 809 
L 744 3209 
L 119 3209 
L 119 3381 
L 744 3381 
L 744 4294 
L 916 4294 
L 916 3381 
L 1684 3381 
L 1684 3209 
L 916 3209 
L 916 809 
Q 916 363 1069 234 
Q 1222 106 1425 106 
Q 1563 106 1759 134 
L 1788 -25 
z
" transform="scale(0.015625)"/>
       <path id="Roboto-Thin-67" d="M 1691 -1363 
Q 1319 -1363 1044 -1203 
Q 769 -1044 584 -794 
L 703 -681 
Q 900 -931 1134 -1064 
Q 1369 -1197 1684 -1197 
Q 2234 -1197 2515 -859 
Q 2797 -522 2797 47 
L 2797 538 
Q 2641 278 2352 107 
Q 2063 -63 1647 -63 
Q 1047 -63 712 412 
Q 378 888 378 1659 
L 378 1725 
Q 378 2525 714 2984 
Q 1050 3444 1653 3444 
Q 2069 3444 2353 3256 
Q 2638 3069 2797 2766 
L 2797 3381 
L 2969 3381 
L 2969 47 
Q 2969 -603 2628 -983 
Q 2288 -1363 1691 -1363 
z
M 550 1659 
Q 550 984 820 545 
Q 1091 106 1644 106 
Q 2119 106 2400 323 
Q 2681 541 2797 863 
L 2797 2397 
Q 2703 2697 2451 2986 
Q 2200 3275 1650 3275 
Q 1097 3275 825 2840 
Q 553 2406 550 1741 
L 550 1659 
z
" transform="scale(0.015625)"/>
      </defs>
      <use xlink:href="#Roboto-Thin-4e"/>
      <use xlink:href="#Roboto-Thin-6f" x="70.751953"/>
      <use xlink:href="#Roboto-Thin-20" x="125.78125"/>
      <use xlink:href="#Roboto-Thin-64" x="149.707031"/>
      <use xlink:href="#Roboto-Thin-69" x="204.443359"/>
      <use xlink:href="#Roboto-Thin-73" x="225.048828"/>
      <use xlink:href="#Roboto-Thin-63" x="274.804688"/>
      <use xlink:href="#Roboto-Thin-6f" x="325.537109"/>
      <use xlink:href="#Roboto-Thin-75" x="380.566406"/>
      <use xlink:href="#Roboto-Thin-6e" x="435.302734"/>
      <use xlink:href="#Roboto-Thin-74" x="490.039062"/>
      <use xlink:href="#Roboto-Thin-69" x="521.679688"/>
      <use xlink:href="#Roboto-Thin-6e" x="542.285156"/>
      <use xlink:href="#Roboto-Thin-67" x="597.021484"/>
     </g>
    </g>
    <g id="line2d_17">
     <path d="M 642.653125 98.40375 
L 658.653125 98.40375 
L 674.653125 98.40375 
" style="fill: none; stroke: #2196f3; stroke-width: 2; stroke-linecap: square"/>
    </g>
    <g id="text_16">
     <!-- Exponential ($\gamma=0.8$) -->
     <g transform="translate(687.453125 104.00375) scale(0.16 -0.16)">
      <defs>
       <path id="Roboto-Thin-45" d="M 625 0 
L 625 4550 
L 3394 4550 
L 3394 4381 
L 794 4381 
L 794 2425 
L 3075 2425 
L 3075 2256 
L 794 2256 
L 794 169 
L 3394 169 
L 3394 0 
L 625 0 
z
" transform="scale(0.015625)"/>
       <path id="Roboto-Thin-78" d="M 447 3381 
L 1528 1881 
L 2606 3381 
L 2819 3381 
L 1631 1734 
L 2881 0 
L 2672 0 
L 1525 1588 
L 381 0 
L 172 0 
L 1422 1734 
L 234 3381 
L 447 3381 
z
" transform="scale(0.015625)"/>
       <path id="Roboto-Thin-70" d="M 1853 -63 
Q 1441 -63 1150 104 
Q 859 272 700 528 
L 700 -1300 
L 531 -1300 
L 531 3381 
L 700 3381 
L 700 2778 
Q 866 3078 1152 3261 
Q 1438 3444 1847 3444 
Q 2450 3444 2786 2984 
Q 3122 2525 3122 1722 
L 3122 1659 
Q 3122 888 2787 412 
Q 2453 -63 1853 -63 
z
M 1850 3275 
Q 1313 3275 1055 2997 
Q 797 2719 700 2422 
L 700 841 
Q 819 525 1105 315 
Q 1391 106 1856 106 
Q 2409 106 2679 545 
Q 2950 984 2950 1659 
L 2950 1725 
Q 2950 2397 2678 2836 
Q 2406 3275 1850 3275 
z
" transform="scale(0.015625)"/>
       <path id="Roboto-Thin-65" d="M 2875 484 
Q 2491 -63 1753 -63 
Q 1138 -63 705 409 
Q 272 881 272 1619 
L 272 1756 
Q 272 2497 689 2970 
Q 1106 3444 1691 3444 
Q 2253 3444 2614 3044 
Q 2975 2644 2975 2000 
L 2975 1803 
L 441 1803 
L 441 1619 
Q 441 988 817 545 
Q 1194 103 1753 103 
Q 2044 103 2294 200 
Q 2544 297 2756 569 
L 2875 484 
z
M 1691 3275 
Q 1178 3275 843 2900 
Q 509 2525 453 1972 
L 2806 1972 
L 2806 2013 
Q 2806 2522 2503 2898 
Q 2200 3275 1691 3275 
z
" transform="scale(0.015625)"/>
       <path id="Roboto-Thin-61" d="M 2722 0 
Q 2659 222 2659 619 
Q 2491 344 2161 140 
Q 1831 -63 1328 -63 
Q 856 -63 572 195 
Q 288 453 288 856 
Q 288 1309 702 1598 
Q 1116 1888 1850 1888 
L 2659 1888 
L 2659 2381 
Q 2659 2803 2390 3039 
Q 2122 3275 1628 3275 
Q 1169 3275 858 3037 
Q 547 2800 547 2450 
L 378 2456 
Q 378 2853 729 3148 
Q 1081 3444 1628 3444 
Q 2156 3444 2492 3176 
Q 2828 2909 2828 2375 
L 2828 756 
Q 2828 250 2916 28 
L 2916 0 
L 2722 0 
z
M 1328 103 
Q 1819 103 2155 322 
Q 2491 541 2659 913 
L 2659 1716 
L 1844 1716 
Q 1197 1713 826 1469 
Q 456 1225 456 844 
Q 456 538 700 320 
Q 944 103 1328 103 
z
" transform="scale(0.015625)"/>
       <path id="Roboto-Thin-6c" d="M 747 4800 
L 747 0 
L 578 0 
L 578 4800 
L 747 4800 
z
" transform="scale(0.015625)"/>
       <path id="Roboto-Thin-28" d="M 463 1831 
Q 463 2550 641 3209 
Q 819 3869 1112 4359 
Q 1406 4850 1756 5072 
L 1816 4938 
Q 1506 4734 1236 4259 
Q 966 3784 798 3153 
Q 631 2522 631 1763 
Q 631 1088 798 455 
Q 966 -178 1236 -654 
Q 1506 -1131 1816 -1334 
L 1756 -1469 
Q 1406 -1250 1112 -775 
Q 819 -300 641 353 
Q 463 1006 463 1831 
z
" transform="scale(0.015625)"/>
       <path id="DejaVuSans-Oblique-3b3" d="M 1491 2950 
L 1838 788 
L 3456 3500 
L 4066 3500 
L 1972 0 
L 1713 -1331 
L 1138 -1331 
L 1397 0 
L 988 2613 
Q 925 3006 628 3006 
L 475 3006 
L 569 3500 
L 788 3500 
Q 1403 3500 1491 2950 
z
" transform="scale(0.015625)"/>
       <path id="DejaVuSans-ExtraLight-3d" d="M 678 2638 
L 4684 2638 
L 4684 2381 
L 678 2381 
L 678 2638 
z
M 678 1631 
L 4684 1631 
L 4684 1375 
L 678 1375 
L 678 1631 
z
" transform="scale(0.015625)"/>
       <path id="DejaVuSans-ExtraLight-30" d="M 2016 4494 
Q 1444 4494 1166 3938 
Q 888 3378 888 2328 
Q 888 1278 1166 719 
Q 1444 163 2016 163 
Q 2606 163 2884 719 
Q 3163 1278 3163 2328 
Q 3163 3378 2884 3938 
Q 2606 4494 2016 4494 
z
M 2016 4750 
Q 2691 4750 3084 4200 
Q 3478 3647 3478 2328 
Q 3478 1009 3084 456 
Q 2691 -94 2016 -94 
Q 1359 -94 966 456 
Q 572 1009 572 2328 
Q 572 3647 966 4200 
Q 1359 4750 2016 4750 
z
" transform="scale(0.015625)"/>
       <path id="DejaVuSans-ExtraLight-2e" d="M 856 394 
L 1175 394 
L 1175 0 
L 856 0 
L 856 394 
z
" transform="scale(0.015625)"/>
       <path id="DejaVuSans-ExtraLight-38" d="M 2034 2325 
Q 1513 2325 1213 2038 
Q 916 1747 916 1240 
Q 916 734 1213 447 
Q 1513 156 2034 156 
Q 2556 156 2856 447 
Q 3159 738 3159 1241 
Q 3159 1747 2859 2038 
Q 2559 2325 2034 2325 
z
M 1403 2484 
Q 1100 2597 906 2863 
Q 703 3141 703 3541 
Q 703 4100 1059 4425 
Q 1416 4750 2034 4750 
Q 2656 4750 3009 4425 
Q 3366 4100 3366 3541 
Q 3366 3125 3163 2863 
Q 2953 2591 2669 2484 
Q 3019 2369 3238 2069 
Q 3466 1759 3466 1313 
Q 3466 634 3097 272 
Q 2725 -91 2034 -91 
Q 1344 -91 972 272 
Q 603 634 603 1313 
Q 603 1759 831 2069 
Q 1084 2378 1403 2484 
z
M 1287 4241 
Q 1022 3988 1022 3534 
Q 1022 3081 1287 2828 
Q 1553 2575 2034 2575 
Q 2509 2575 2781 2828 
Q 3050 3081 3050 3534 
Q 3050 3988 2781 4241 
Q 2509 4494 2034 4494 
Q 1553 4494 1287 4241 
z
" transform="scale(0.015625)"/>
       <path id="Roboto-Thin-29" d="M 1441 1769 
Q 1441 1009 1262 354 
Q 1084 -300 789 -775 
Q 494 -1250 147 -1469 
L 88 -1334 
Q 397 -1131 667 -654 
Q 938 -178 1105 453 
Q 1272 1084 1272 1844 
Q 1272 2519 1105 3151 
Q 938 3784 667 4259 
Q 397 4734 88 4938 
L 147 5072 
Q 494 4850 789 4359 
Q 1084 3869 1262 3211 
Q 1441 2553 1441 1769 
z
" transform="scale(0.015625)"/>
      </defs>
      <use xlink:href="#Roboto-Thin-45" transform="translate(0 0.75)"/>
      <use xlink:href="#Roboto-Thin-78" transform="translate(56.933594 0.75)"/>
      <use xlink:href="#Roboto-Thin-70" transform="translate(104.6875 0.75)"/>
      <use xlink:href="#Roboto-Thin-6f" transform="translate(159.423828 0.75)"/>
      <use xlink:href="#Roboto-Thin-6e" transform="translate(214.453125 0.75)"/>
      <use xlink:href="#Roboto-Thin-65" transform="translate(269.189453 0.75)"/>
      <use xlink:href="#Roboto-Thin-6e" transform="translate(319.580078 0.75)"/>
      <use xlink:href="#Roboto-Thin-74" transform="translate(374.316406 0.75)"/>
      <use xlink:href="#Roboto-Thin-69" transform="translate(405.957031 0.75)"/>
      <use xlink:href="#Roboto-Thin-61" transform="translate(426.5625 0.75)"/>
      <use xlink:href="#Roboto-Thin-6c" transform="translate(479.345703 0.75)"/>
      <use xlink:href="#Roboto-Thin-20" transform="translate(499.951172 0.75)"/>
      <use xlink:href="#Roboto-Thin-28" transform="translate(523.876953 0.75)"/>
      <use xlink:href="#DejaVuSans-Oblique-3b3" transform="translate(553.515625 0.75)"/>
      <use xlink:href="#DejaVuSans-ExtraLight-3d" transform="translate(632.177734 0.75)"/>
      <use xlink:href="#DejaVuSans-ExtraLight-30" transform="translate(735.449219 0.75)"/>
      <use xlink:href="#DejaVuSans-ExtraLight-2e" transform="translate(799.072266 0.75)"/>
      <use xlink:href="#DejaVuSans-ExtraLight-38" transform="translate(828.234375 0.75)"/>
      <use xlink:href="#Roboto-Thin-29" transform="translate(891.857422 0.75)"/>
     </g>
    </g>
    <g id="line2d_18">
     <path d="M 642.653125 122.88375 
L 658.653125 122.88375 
L 674.653125 122.88375 
" style="fill: none; stroke: #e91e63; stroke-width: 2; stroke-linecap: square"/>
    </g>
    <g id="text_17">
     <!-- Hyperbolic ($k=0.5$) -->
     <g transform="translate(687.453125 128.48375) scale(0.16 -0.16)">
      <defs>
       <path id="Roboto-Thin-48" d="M 3700 0 
L 3700 2256 
L 794 2256 
L 794 0 
L 625 0 
L 625 4550 
L 794 4550 
L 794 2425 
L 3700 2425 
L 3700 4550 
L 3869 4550 
L 3869 0 
L 3700 0 
z
" transform="scale(0.015625)"/>
       <path id="Roboto-Thin-79" d="M 556 -1366 
Q 388 -1366 306 -1331 
L 303 -1172 
Q 409 -1200 531 -1200 
Q 844 -1200 1006 -1012 
Q 1169 -825 1278 -531 
L 1481 19 
L 134 3381 
L 319 3381 
L 1572 263 
L 1594 325 
L 2763 3381 
L 2950 3381 
L 1441 -578 
Q 1303 -944 1170 -1097 
Q 1038 -1250 897 -1308 
Q 756 -1366 556 -1366 
z
" transform="scale(0.015625)"/>
       <path id="Roboto-Thin-72" d="M 1809 3278 
Q 1338 3278 1063 2973 
Q 788 2669 706 2213 
L 706 0 
L 538 0 
L 538 3381 
L 706 3381 
L 706 2678 
Q 847 3031 1120 3237 
Q 1394 3444 1809 3444 
Q 1950 3444 2047 3409 
L 2028 3259 
L 1809 3278 
z
" transform="scale(0.015625)"/>
       <path id="Roboto-Thin-62" d="M 3122 1659 
Q 3122 888 2787 412 
Q 2453 -63 1853 -63 
Q 1438 -63 1148 106 
Q 859 275 700 534 
L 700 0 
L 531 0 
L 531 4800 
L 700 4800 
L 700 2769 
Q 863 3072 1148 3258 
Q 1434 3444 1847 3444 
Q 2450 3444 2786 2984 
Q 3122 2525 3122 1722 
L 3122 1659 
z
M 1850 3275 
Q 1303 3275 1048 2989 
Q 794 2703 700 2406 
L 700 856 
Q 816 534 1100 320 
Q 1384 106 1856 106 
Q 2406 106 2675 540 
Q 2944 975 2947 1644 
L 2947 1725 
Q 2947 2397 2676 2836 
Q 2406 3275 1850 3275 
z
" transform="scale(0.015625)"/>
       <path id="DejaVuSans-Oblique-6b" d="M 1172 4863 
L 1747 4863 
L 1197 2028 
L 3169 3500 
L 3916 3500 
L 1716 1825 
L 3322 0 
L 2625 0 
L 1131 1709 
L 800 0 
L 225 0 
L 1172 4863 
z
" transform="scale(0.015625)"/>
       <path id="DejaVuSans-ExtraLight-35" d="M 816 4666 
L 3031 4666 
L 3031 4413 
L 1131 4413 
L 1131 2847 
Q 1269 2897 1406 2925 
Q 1544 2950 1809 2950 
Q 2525 2950 2944 2556 
Q 3359 2166 3359 1497 
Q 3359 744 2931 325 
Q 2503 -91 1722 -91 
Q 1463 -91 1191 -47 
Q 922 -3 631 84 
L 631 403 
Q 875 288 1138 228 
Q 1397 172 1688 172 
Q 2313 172 2681 528 
Q 3050 884 3050 1497 
Q 3050 2050 2691 2372 
Q 2328 2697 1709 2697 
Q 1581 2697 1331 2628 
Q 1078 2563 816 2422 
L 816 4666 
z
" transform="scale(0.015625)"/>
      </defs>
      <use xlink:href="#Roboto-Thin-48" transform="translate(0 0.75)"/>
      <use xlink:href="#Roboto-Thin-79" transform="translate(70.214844 0.75)"/>
      <use xlink:href="#Roboto-Thin-70" transform="translate(117.96875 0.75)"/>
      <use xlink:href="#Roboto-Thin-65" transform="translate(172.705078 0.75)"/>
      <use xlink:href="#Roboto-Thin-72" transform="translate(223.095703 0.75)"/>
      <use xlink:href="#Roboto-Thin-62" transform="translate(256.542969 0.75)"/>
      <use xlink:href="#Roboto-Thin-6f" transform="translate(311.279297 0.75)"/>
      <use xlink:href="#Roboto-Thin-6c" transform="translate(366.308594 0.75)"/>
      <use xlink:href="#Roboto-Thin-69" transform="translate(386.914062 0.75)"/>
      <use xlink:href="#Roboto-Thin-63" transform="translate(407.519531 0.75)"/>
      <use xlink:href="#Roboto-Thin-20" transform="translate(458.251953 0.75)"/>
      <use xlink:href="#Roboto-Thin-28" transform="translate(482.177734 0.75)"/>
      <use xlink:href="#DejaVuSans-Oblique-6b" transform="translate(511.816406 0.75)"/>
      <use xlink:href="#DejaVuSans-ExtraLight-3d" transform="translate(589.208984 0.75)"/>
      <use xlink:href="#DejaVuSans-ExtraLight-30" transform="translate(692.480469 0.75)"/>
      <use xlink:href="#DejaVuSans-ExtraLight-2e" transform="translate(756.103516 0.75)"/>
      <use xlink:href="#DejaVuSans-ExtraLight-35" transform="translate(787.890625 0.75)"/>
      <use xlink:href="#Roboto-Thin-29" transform="translate(851.513672 0.75)"/>
     </g>
    </g>
   </g>
  </g>
 </g>
 <defs>
  <clipPath id="pb1ffc8a065">
   <rect x="53.683125" y="7.2" width="795.85" height="185.56"/>
  </clipPath>
 </defs>
</svg>
